<mxfile host="app.diagrams.net" modified="2024-06-09T17:34:04.847Z" agent="Mozilla/5.0 (Windows NT 10.0; Win64; x64) AppleWebKit/537.36 (KHTML, like Gecko) Chrome/122.0.0.0 YaBrowser/24.4.0.0 Safari/537.36" version="24.5.2" etag="ij6WIxX5KYRvD63MfEp5" type="github">
  <diagram name="Страница — 1" id="LStz4ZRtvdrPt99P4FRu">
    <mxGraphModel>
      <root>
        <mxCell id="0" />
        <mxCell id="1" parent="0" />
      </root>
    </mxGraphModel>
  </diagram>
</mxfile>
